PathFileType	4	(X/Y/Z)	Patient4_TMGait_0pt4_03_left_19.trc.trc
DataRate	CameraRate	NumFrames	NumMarkers	Units	OrigDataRate	OrigDataStartFrame	OrigNumFrames
75.268817204301	75.268817204301	4	33	mm	75.268817204301	71	       141
Frame#	Time	Sacral			L.Shoulder			Chest			R.Shoulder			Neck			R.ASIS			L.ASIS			R.Thigh.Superior			R.Thigh.Lateral			R.Thigh.Inferior			R.Patella			L.Thigh.Superior			L.Thigh.Lateral			L.Thigh.Inferior			L.Patella			L.Shank.Superior			L.Shank.Lateral			L.Shank.Inferior			R.Shank.Superior			R.Shank.Lateral			R.Shank.Inferior			R.Heel			R.Midfoot.Superior			R.Midfoot.Lateral			R.Toe			L.Heel			L.Midfoot.Lateral			L.Midfoot.Superior			L.Toe			L.Elbow			L.Wrist			R.Elbow			R.Wrist			
		X1	Y1	Z1	X2	Y2	Z2	X3	Y3	Z3	X4	Y4	Z4	X5	Y5	Z5	X6	Y6	Z6	X7	Y7	Z7	X8	Y8	Z8	X9	Y9	Z9	X10	Y10	Z10	X11	Y11	Z11	X12	Y12	Z12	X13	Y13	Z13	X14	Y14	Z14	X15	Y15	Z15	X16	Y16	Z16	X17	Y17	Z17	X18	Y18	Z18	X19	Y19	Z19	X20	Y20	Z20	X21	Y21	Z21	X22	Y22	Z22	X23	Y23	Z23	X24	Y24	Z24	X25	Y25	Z25	X26	Y26	Z26	X27	Y27	Z27	X28	Y28	Z28	X29	Y29	Z29	X30	Y30	Z30	X31	Y31	Z31	X32	Y32	Z32	X33	Y33	Z33	

71	25.740000000000	841.952972154423	1009.776009874374	432.554813472366	1043.403020122677	1415.116048887387	221.077978537049	1133.626466333482	1361.113909664932	394.575489096411	1043.050955839490	1453.282951583605	555.848611415644	1019.024632860148	1493.900844552886	370.138748106954	1064.911966629359	947.813659560899	562.882248791330	1063.130685816995	963.381876624938	287.230872476974	1132.337376143608	764.477161399235	542.668288263362	1081.988766404520	648.754603640107	619.812319325655	1169.950584077505	604.902306294210	541.230181624772	1198.870298209231	524.013202842978	560.804699047811	1086.594753842022	744.024310376091	318.728704220175	983.183512651715	638.302364007231	252.991695430029	1054.741457706894	552.375827306524	316.389415208959	1045.607689574786	485.993368290338	324.450818123013	1018.440942655563	416.535637287721	317.025903091333	923.079715870187	304.045561549777	269.979834947753	975.393832621521	192.681657773519	341.519317356029	1181.631126248704	438.474967968995	573.280437587536	1126.910680841689	328.168852011555	640.573318821415	1195.080537610237	239.773979189898	591.771323243122	1101.204075897227	56.235596927716	569.049018172782	1266.701514443172	122.401194524614	606.658874974949	1186.413134645132	50.858666693916	641.337728765266	1390.033183356947	81.746890054186	630.099479189996	847.508816714918	38.592008347331	392.596455134659	917.169475599036	35.049279098789	308.028583341488	1001.392425854116	96.356090748655	331.382724233007	1128.453276030962	45.925593180566	296.360829693336	1068.006368679682	1063.421296400086	108.733558240562	1223.819934740127	850.857084290668	108.626211258881	946.059980997391	1135.448368693425	708.016494809317	983.189260165549	881.654935326422	759.650097182951	
72	25.753285714286	843.324799698341	1008.848842166335	433.650114411172	1043.576734541790	1414.949555106238	223.267758370123	1133.764893474542	1361.062327730895	396.802647662664	1042.595317930273	1452.617237277987	558.107389619547	1018.786512817789	1493.405530407474	372.434162807729	1066.434169105665	946.623152528504	563.951743462823	1064.766579513334	963.366082621763	288.321383892543	1133.829434680701	762.605675952943	542.779174360673	1081.919318119722	646.300830168937	618.517374219806	1169.625149165938	602.516506505114	539.943377987042	1197.280863103814	520.974163358144	558.811217309020	1086.666540321417	743.196671892037	319.333587148923	981.924037198289	638.217842367449	253.672338896532	1052.595306991495	551.624674011671	316.806804507708	1042.969759683865	485.262861193989	324.809068363685	1015.302029938345	416.134405878709	317.342994146563	919.141816152957	304.331787993115	270.250865878103	970.748012593817	192.462241670503	341.548260873587	1178.586783351359	434.747168429671	571.083515276138	1121.607483363211	325.340826263872	637.856837757557	1187.751865011521	235.793049423187	588.698125249637	1090.141962788662	54.362579999694	565.684233349059	1256.564740349148	117.694625074032	603.050815744622	1175.100899529785	48.161424087070	638.180469584236	1379.189366337734	75.412814023371	626.993579967676	842.188164840014	38.641703328651	392.563542419159	911.848078543946	35.063776559659	308.033747278613	996.144885174362	96.264764034215	331.398255651806	1123.169465582577	45.687321676527	296.378701449614	1068.444819860606	1063.344674015773	110.591374076962	1224.671586569607	851.041514644536	110.678090626973	944.027357294577	1135.303831103971	709.803355637608	983.301186236019	881.760912909586	761.021472999279	
73	25.766571428571	844.871521901864	1007.784596823398	434.961265924948	1043.699947120705	1414.718952012020	225.656134994763	1133.913986912927	1361.013871931291	399.218308239104	1042.103514999446	1451.876348792975	560.576181166261	1018.496541695411	1492.842967030666	374.933280063044	1068.215160276763	945.363370371505	565.126553762685	1066.564358892055	963.323476492492	289.537923523020	1135.566450922107	760.550619914308	542.862673394747	1081.973259130916	643.779474035016	617.123271073891	1169.370582410410	600.044664282695	538.521676370355	1195.653386917231	517.705639911571	556.611396164175	1086.956745697515	742.324882258476	319.847605900041	980.745983027860	638.137847797718	254.435666775814	1050.583187290759	550.864374696924	317.189717999133	1040.491591385176	484.496540424860	325.196369780183	1012.285823926096	415.708792492450	317.702816845778	915.274337276260	304.639932412260	270.574334450574	966.142011990645	192.227294263437	341.590749806777	1175.350622022198	430.771636284592	568.794498679580	1115.946626481003	322.409707548257	635.175940435468	1179.782062099170	231.548357908440	585.570757406288	1078.063912062032	52.404827412963	562.551587663131	1245.481829197269	112.900415745393	599.433513418851	1162.823265885946	45.524735579274	635.229966868013	1367.445783222402	68.963494370147	623.872461158834	836.878273386453	38.686100027320	392.528419010283	906.533831602744	35.079927161142	308.045207620012	990.901742848268	96.171593436393	331.420153713239	1117.889248951975	45.421953839750	296.399985546957	1068.634195440868	1063.193907054446	112.588970148921	1225.050737055389	850.989762853864	112.732007239476	942.214551243166	1134.926645043787	711.675498617609	984.235447134866	881.701968462153	762.388474616774	
74	25.779857142857	846.572131297198	1006.628956709990	436.458340525188	1043.792148754862	1414.446540821952	228.243114131818	1134.096965648980	1360.974687964106	401.816868584060	1041.619419954159	1451.075491480604	563.254118921631	1018.192583010050	1492.240194297909	377.638603560463	1070.210831939224	944.069908284615	566.400539740510	1068.507623142228	963.260331104873	290.878335277199	1137.404865025068	758.326707987101	542.973375256988	1082.027721550710	641.267148385032	615.734029545858	1169.091866121152	597.546914937087	537.077092546789	1193.929929396163	514.321834721610	554.315959615429	1087.451025739309	741.413900194994	320.272548196830	979.664795415351	638.066330803050	255.284722550859	1048.725827936109	550.102196643995	317.561514986332	1038.197925494190	483.695170480131	325.629432844727	1009.411265535263	415.259808831516	318.120133793734	911.486536400806	304.977860091024	270.965193643931	961.580654550108	191.981759570927	341.658693058926	1172.014537086113	426.728935307634	566.533987335694	1110.250630779769	319.467660526627	632.688725059794	1171.646534641097	227.261647260551	582.540296393765	1065.785557430643	50.399142846217	559.832208386266	1234.141420323290	108.394039484995	595.970359646934	1150.422729752352	43.108197400723	632.640518632520	1355.582284797059	62.975326800671	620.855443678081	831.578288896130	38.731008545464	392.492808669048	901.227629290573	35.102877492145	308.066654224318	985.663406979289	96.083287218891	331.450882715286	1112.611050729789	45.126793535169	296.422697442329	1068.571230709717	1062.984484703841	114.739291388550	1224.943648886046	850.711677213530	114.770726825285	940.718277912668	1134.308354388112	713.633856837313	985.960384222293	881.472799709210	763.771012272836	
